<?xml version="1.0" encoding="utf-8"?>
<svg id="master-artboard" viewBox="0 0 1000 1000" version="1.1" xmlns="http://www.w3.org/2000/svg" x="0px" y="0px" style="enable-background:new 0 0 1400 980;" width="1000px" height="1000px"><rect id="ee-background" x="0" y="0" width="1000" height="1000" style="fill: white; fill-opacity: 0; pointer-events: none;"/>


<g transform="matrix(9.921334791183472, 0, 0, 9.921334791183472, -5968.710283851624, -452.4481781005859)"><g id="g-1" transform="matrix(1, 0, 0, 1, 0, 0)">
	<g id="g-2">
		<path class="st0" d="M652,46c27.6,0,50,22.4,50,50s-22.4,50-50,50s-50-22.4-50-50S624.4,46,652,46z" style="fill: rgb(70, 93, 118);"/>
	</g>
</g></g><g transform="matrix(1.3274933099746704, 0, 0, 1.3274933099746704, 145.60153541155864, 152.88196735177544)"><g>
	<path class="st0" d="M499.516,439.313l-79.547-79.563l-60.219,60.219l79.547,79.563c8.047,8.031,18.734,12.469,30.125,12.469&#10;&#9;&#9;c11.359,0,22.047-4.438,30.094-12.469c8.063-8.047,12.484-18.75,12.484-30.125S507.563,447.344,499.516,439.313z" style="fill: rgb(248, 210, 111);"/>
	<path class="st0" d="M399.391,362.313L358,320.906c0.063-0.094,0.063-0.188,0.125-0.25c26.563-34.719,41.156-77.688,41.125-121.031&#10;&#9;&#9;c0.047-53.281-20.703-103.438-58.469-141.156C303.109,20.766,253.063,0,199.375,0C146.172,0,96.141,20.766,58.469,58.469&#10;&#9;&#9;C20.703,96.188-0.063,146.344,0,199.641c-0.047,53.297,20.719,103.422,58.453,141.141c37.688,37.719,87.766,58.469,141.188,58.469&#10;&#9;&#9;h0.188c43.234,0,86.141-14.594,120.828-41.125c0.078-0.063,0.156-0.094,0.234-0.125l41.406,41.406L399.391,362.313z&#10;&#9;&#9; M294.688,294.688c-25.391,25.344-59.125,39.344-95.078,39.406c-35.922-0.063-69.672-14.063-95.047-39.406&#10;&#9;&#9;c-25.359-25.359-39.344-59.125-39.391-95.063c0.047-35.938,14.031-69.688,39.375-95.063c25.375-25.344,59.125-39.313,95.063-39.391&#10;&#9;&#9;c0.016-0.016,0.031,0,0.031,0c35.922,0.078,69.672,14.047,95.047,39.391c25.344,25.359,39.328,59.125,39.391,95.094&#10;&#9;&#9;C334.016,235.578,320.031,269.344,294.688,294.688z" style="fill: rgb(248, 210, 111);"/>
</g></g><path style="fill: rgb(248, 210, 111); fill-opacity: 1; stroke: rgb(0, 0, 0); stroke-opacity: 1; stroke-width: 0; paint-order: fill;" d="M 87.74520111083984 301.7795715332031"/></svg>