<svg version="1.1" xmlns="http://www.w3.org/2000/svg" xmlns:xlink="http://www.w3.org/1999/xlink" x="0px"
	 y="0px" width="100px" height="100px" viewBox="10 10 80 80" enable-background="new 0 0 100 100">
<g>
	<path fill="#8B4513" d="M59.209,38.077C48.94,31.121,46.5,17.395,40.33,19.53c-6.072,2.102,4.246,19.21-12.164,34.886
		C17.78,64.339,16.374,67.684,16.483,72.891c0.162,7.699,3.865,9.255,8.06,6.605c3.497-2.209-1.655-7.194,1.211-10.763
		c4.681-5.825,13.409-1.21,26.722,6.328c7.334,4.154,4.084-6.734,15.657-13.946c10.507-6.548,15.718-5.562,15.374-11.046
		C83.824,43.74,69.608,47.164,59.209,38.077"/>
</g>
</svg>
