<?xml version="1.0" encoding="utf-8"?>
<svg id="master-artboard" viewBox="0 0 1100 1100" xmlns="http://www.w3.org/2000/svg" width="1100px" height="1100px" version="1.1" style="shape-rendering:geometricPrecision; text-rendering:geometricPrecision; image-rendering:optimizeQuality; fill-rule:evenodd; clip-rule:evenodd"><rect id="ee-background" x="0" y="0" width="1100" height="1100" style="fill: rgb(0, 0, 0); fill-opacity: 0; pointer-events: none;"/>
 
 <metadata id="CorelCorpID_0Corel-Layer"/>
<g transform="matrix(1.9481878280639648, 0, 0, 1.9481878280639648, -117.61982163275479, 44.683237565870286)"><g>
	<path class="st0" d="M256,0C159.969,0,82.125,77.859,82.125,173.906C82.125,269.938,236.797,512,256,512&#10;&#9;&#9;c19.219,0,173.875-242.063,173.875-338.094C429.875,77.859,352.031,0,256,0z M256,240.406c-36.719,0-66.5-29.781-66.5-66.5&#10;&#9;&#9;c0-36.75,29.781-66.531,66.5-66.531s66.516,29.781,66.516,66.531C322.516,210.625,292.719,240.406,256,240.406z" style="fill: rgb(255, 254, 254);"/>
</g></g><g transform="matrix(0.9430378675460815, 0, 0, 0.9430378675460815, 577.9495431678524, 580.2450561523435)"><g>
	<path class="st0" d="M452.422,155.809c-36.6-36.713-87.875-59.612-143.837-59.578h-73.337V84.847V8.939L46.711,162.247&#10;&#9;&#9;L235.248,315.57v-78.228v-8.269h73.337c19.694,0.033,36.924,7.799,49.906,20.658c12.868,12.99,20.634,30.212,20.667,49.914&#10;&#9;&#9;c-0.033,19.702-7.8,36.924-20.667,49.897c-12.982,12.876-30.212,20.642-49.906,20.676H0v132.842h308.585&#10;&#9;&#9;c55.962,0.033,107.237-22.866,143.837-59.578c36.698-36.6,59.612-87.875,59.578-143.837&#10;&#9;&#9;C512.033,243.684,489.12,192.408,452.422,155.809z" style="fill: rgb(255, 255, 255);"/>
</g></g></svg>