<?xml version="1.0" encoding="utf-8"?>
<svg id="master-artboard" viewBox="0 0 1100 1100" xmlns="http://www.w3.org/2000/svg" width="1100px" height="1100px" version="1.1" style="shape-rendering:geometricPrecision; text-rendering:geometricPrecision; image-rendering:optimizeQuality; fill-rule:evenodd; clip-rule:evenodd"><rect id="ee-background" x="0" y="0" width="1100" height="1100" style="fill: rgb(0, 0, 0); fill-opacity: 0; pointer-events: none;"/>
 
 <metadata id="CorelCorpID_0Corel-Layer"/>
<g transform="matrix(1.9481878280639648, 0, 0, 1.9481878280639648, -117.61982163275479, 44.683237565870286)"><g>
	<path class="st0" d="M256,0C159.969,0,82.125,77.859,82.125,173.906C82.125,269.938,236.797,512,256,512&#10;&#9;&#9;c19.219,0,173.875-242.063,173.875-338.094C429.875,77.859,352.031,0,256,0z M256,240.406c-36.719,0-66.5-29.781-66.5-66.5&#10;&#9;&#9;c0-36.75,29.781-66.531,66.5-66.531s66.516,29.781,66.516,66.531C322.516,210.625,292.719,240.406,256,240.406z" style="fill: rgb(255, 254, 254);"/>
</g></g><g transform="matrix(3.163224935531616, -3.169545888900757, 3.169545888900757, 3.163224935531616, -2955.0506391103804, 334.31815537298894)"><path d="M 562.5999755859375 646.9000244140625 L 545.5999755859375 629.9000244140625 L 518.7000122070312 656.7000122070312 L 491.8999938964844 629.9000244140625 L 474.8999938964844 646.9000244140625 L 501.70001220703125 673.7999877929688 L 474.8999938964844 700.5999755859375 L 491.8999938964844 717.5999755859375 L 518.7000122070312 690.7999877929688 L 545.5999755859375 717.5999755859375 L 562.5999755859375 700.5999755859375 L 535.7999877929688 673.7999877929688 Z" class="st0" style="fill: rgb(255, 255, 255);" transform="matrix(1, 0, 0, 1, 0, 0)"/></g></svg>